<?xml version="1.0" standalone="no"?>
<!DOCTYPE svg PUBLIC "-//W3C//DTD SVG 20010904//EN"
 "http://www.w3.org/TR/2001/REC-SVG-20010904/DTD/svg10.dtd">
<svg version="1.0" xmlns="http://www.w3.org/2000/svg"
 width="397.000000pt" height="397.000000pt" viewBox="0 0 397.000000 397.000000"
 preserveAspectRatio="xMidYMid meet">
<metadata>
Created by potrace 1.14, written by Peter Selinger 2001-2017
</metadata>
<g transform="translate(0.000000,397.000000) scale(0.100000,-0.100000)"
fill="#000000" stroke="none">
<path d="M780 3850 c0 -5 23 -10 50 -10 28 0 50 5 50 10 0 6 -22 10 -50 10
-27 0 -50 -4 -50 -10z"/>
<path d="M930 3850 c0 -6 31 -10 74 -10 48 0 76 -4 78 -12 3 -8 44 -13 124
-16 72 -3 122 -9 126 -16 5 -8 13 -8 28 2 12 7 20 8 20 2 0 -6 31 -10 74 -10
41 0 76 -4 78 -10 2 -5 58 -12 126 -16 67 -4 122 -10 122 -14 0 -4 32 -13 72
-20 53 -9 73 -10 76 -1 5 14 102 15 102 1 0 -5 23 -10 50 -10 28 0 50 5 50 10
0 6 11 10 25 10 14 0 25 -4 25 -10 0 -6 48 -10 125 -10 77 0 125 4 125 10 0 6
11 10 25 10 14 0 25 -4 25 -10 0 -5 9 -10 21 -10 13 0 18 4 13 13 -5 8 -2 8 9
-2 9 -7 17 -11 17 -7 0 3 12 1 28 -5 19 -8 66 -7 166 2 101 9 141 9 144 1 4
-14 394 -5 403 9 3 5 128 12 299 15 235 4 295 3 301 -8 6 -9 9 -4 9 15 0 29
10 33 42 16 19 -10 20 -9 14 15 -9 38 2 32 12 -6 8 -30 9 -28 10 25 l1 57
-1519 0 c-1007 0 -1520 -3 -1520 -10z"/>
<path d="M2385 3680 c-3 -5 -1 -10 4 -10 6 0 11 5 11 10 0 6 -2 10 -4 10 -3 0
-8 -4 -11 -10z"/>
<path d="M2376 3477 c-4 -93 -6 -170 -3 -173 8 -8 19 174 15 261 -2 63 -5 45
-12 -88z"/>
<path d="M1490 3470 c-14 -4 -43 -9 -65 -9 -47 -2 -59 -10 -102 -72 -43 -61
-69 -164 -38 -153 10 4 25 -16 52 -71 l37 -77 -27 -24 -28 -24 -660 0 -659 0
0 -55 0 -55 33 -1 c113 -4 396 -10 417 -10 21 1 322 0 577 -2 55 0 66 3 98 31
46 41 93 65 113 57 8 -3 19 0 23 7 6 9 13 8 28 -6 11 -10 25 -15 30 -11 7 3
11 -2 11 -14 0 -12 4 -21 9 -21 5 0 12 -11 15 -25 4 -14 13 -25 21 -25 8 0 15
-4 15 -10 0 -5 10 -10 23 -10 31 1 98 65 138 133 l34 58 7 -40 c4 -22 3 -55
-2 -72 -5 -18 -7 -36 -4 -40 3 -5 1 -9 -4 -9 -5 0 -17 -15 -25 -33 -9 -18 -25
-41 -37 -52 -11 -10 -20 -23 -20 -29 0 -13 90 85 90 98 0 4 6 6 13 3 7 -3 13
3 13 13 0 10 -6 16 -13 13 -16 -6 -16 -8 1 48 12 38 12 50 0 77 -7 18 -10 40
-7 49 4 10 -10 1 -30 -20 -41 -40 -93 -50 -116 -23 -10 12 -7 15 15 18 31 3
45 27 17 29 -10 1 -2 5 17 9 30 6 31 8 8 9 -19 1 -26 6 -24 18 2 9 8 19 14 21
19 6 14 22 -8 22 -16 0 -20 7 -20 30 0 36 11 39 25 8 15 -33 69 -37 86 -6 11
21 13 21 19 4 10 -30 38 -28 44 2 20 101 20 100 -18 157 -20 30 -40 55 -45 55
-5 0 -11 9 -14 20 -5 21 -31 25 -77 10z m62 -98 c16 -13 42 -81 35 -89 -2 -1
-39 -5 -82 -7 -71 -4 -80 -2 -96 17 -9 12 -14 26 -11 32 4 5 7 17 7 25 0 8 15
23 34 32 38 19 85 15 113 -10z m-102 -191 c0 -14 -18 -23 -30 -16 -6 4 -8 11
-5 16 8 12 35 12 35 0z"/>
<path d="M2341 3204 c0 -11 3 -14 6 -6 3 7 2 16 -1 19 -3 4 -6 -2 -5 -13z"/>
<path d="M2359 3148 c0 -33 -2 -38 -9 -23 -8 19 -9 19 -9 -2 -1 -13 2 -23 7
-23 4 0 7 -13 7 -29 0 -16 -3 -27 -7 -24 -5 2 -8 1 -8 -4 0 -4 -58 -7 -130 -5
l-130 3 1 -108 c1 -170 -1 -192 -12 -168 -8 17 -9 16 -3 -5 3 -14 8 -36 11
-50 3 -14 12 -29 19 -33 8 -4 14 -16 15 -25 0 -12 3 -11 9 6 8 20 17 22 82 24
40 0 79 1 86 1 17 -1 15 16 -3 23 -20 8 -21 92 -1 100 22 8 51 -12 51 -35 0
-32 20 -30 23 2 2 15 7 27 11 27 5 0 14 14 21 30 10 24 10 33 0 45 -9 10 -9
15 -1 15 6 0 11 -4 11 -10 0 -25 28 -7 34 21 10 54 7 67 -16 72 l-23 4 23 2
c19 1 23 6 20 29 -2 23 -8 27 -33 27 l-30 1 0 77 c0 42 -3 77 -7 77 -5 0 -8
-19 -9 -42z m54 -215 c-7 -2 -21 -2 -30 0 -10 3 -4 5 12 5 17 0 24 -2 18 -5z
m-104 -86 c-15 -14 -28 -20 -34 -15 -12 11 20 38 43 38 11 0 8 -7 -9 -23z
m-194 -37 c3 -5 2 -10 -4 -10 -5 0 -13 5 -16 10 -3 6 -2 10 4 10 5 0 13 -4 16
-10z m16 -33 c-10 -9 -11 -8 -5 6 3 10 9 15 12 12 3 -3 0 -11 -7 -18z m-24
-54 c-3 -10 -5 -2 -5 17 0 19 2 27 5 18 2 -10 2 -26 0 -35z m39 7 c9 0 12 -5
9 -10 -8 -13 -35 6 -34 24 0 7 2 6 6 -1 2 -7 11 -13 19 -13z"/>
<path d="M3308 3045 c-3 -3 -197 -6 -432 -5 l-426 0 0 -84 c0 -103 5 -119 31
-106 17 10 116 6 126 -4 6 -6 -54 -16 -82 -14 -43 2 -46 -1 -40 -36 6 -29 4
-35 -14 -41 -28 -9 -37 -1 -45 36 -5 26 -8 29 -21 19 -8 -7 -13 -16 -10 -20
10 -17 -17 -67 -45 -84 -32 -18 -31 -41 1 -33 15 4 19 0 19 -23 0 -16 -4 -32
-10 -35 -6 -4 -10 5 -10 21 0 15 -2 25 -5 22 -8 -8 -11 -128 -2 -128 4 0 7 16
7 36 0 20 4 33 10 29 5 -3 7 -25 3 -50 -4 -31 -2 -45 6 -45 11 0 15 56 11 142
-1 28 3 38 18 42 10 4 29 16 41 27 24 23 42 19 22 -5 -10 -12 -7 -15 16 -20
25 -6 635 -9 1251 -7 l242 1 0 180 0 180 -314 0 c-173 0 -321 2 -328 5 -8 3
-17 3 -20 0z m-545 -186 c50 -1 51 -1 17 -10 -38 -9 -119 -10 -135 -1 -12 8
35 21 53 16 8 -2 37 -4 65 -5z m993 -2 c4 -4 5 -10 2 -13 -9 -8 -146 -16 -158
-9 -5 3 -166 8 -356 10 -224 3 -351 8 -358 15 -7 7 121 9 426 7 240 -1 440 -6
444 -10z m81 -23 c-3 -3 -12 -4 -19 -1 -8 3 -5 6 6 6 11 1 17 -2 13 -5z"/>
<path d="M1679 3020 c13 -11 30 -20 37 -20 8 0 33 -13 56 -30 22 -16 45 -30
50 -30 5 0 30 16 54 36 25 20 47 34 50 32 3 -3 -11 -32 -32 -64 -30 -47 -35
-61 -25 -76 6 -10 11 -25 11 -33 0 -19 59 -21 61 -2 2 21 17 -46 18 -83 1 -36
1 -36 -35 -32 -21 3 -34 0 -31 -5 3 -5 20 -10 38 -11 18 -1 34 -4 36 -5 1 -2
5 -35 9 -74 5 -57 10 -71 23 -71 15 0 27 -2 111 -16 19 -3 29 -4 23 0 -8 3
-14 26 -14 52 l-2 47 -7 -40 c-4 -22 -8 -30 -9 -17 -1 15 -7 22 -22 22 -18 0
-19 -2 -9 -15 10 -12 10 -15 -2 -15 -10 0 -19 19 -27 56 -14 61 -11 73 12 50
13 -14 15 -13 13 9 0 14 -4 25 -8 25 -6 0 -98 268 -98 287 0 4 23 6 51 4 45
-3 50 -1 47 15 -3 18 -15 19 -158 19 -119 0 -154 -3 -152 -12 1 -7 -5 -13 -13
-13 -8 0 -15 7 -15 15 0 10 -10 15 -32 15 l-33 -1 24 -19z m337 -361 c19 -51
17 -76 -6 -82 -17 -4 -20 0 -20 28 0 18 -3 47 -7 65 -8 44 16 36 33 -11z"/>
<path d="M2005 2981 c-3 -5 -1 -12 5 -16 5 -3 10 -14 10 -24 0 -10 6 -24 14
-30 11 -9 15 -7 20 11 13 49 7 68 -18 68 -14 0 -27 -4 -31 -9z"/>
<path d="M1040 2900 c-12 -8 -11 -10 8 -10 12 0 22 5 22 10 0 13 -11 13 -30 0z"/>
<path d="M1340 2900 c0 -29 61 -110 97 -129 32 -16 38 4 7 24 -48 31 -77 60
-90 90 -7 17 -13 23 -14 15z"/>
<path d="M1190 2891 c0 -5 18 -11 41 -13 39 -4 55 2 42 16 -10 9 -83 7 -83 -3z"/>
<path d="M1049 2794 c-14 -62 -14 -67 4 -107 11 -23 21 -47 22 -54 2 -6 8 -19
14 -30 8 -15 10 -15 11 -2 0 9 -3 19 -7 23 -10 9 -14 38 -21 143 l-7 92 -16
-65z"/>
<path d="M1270 2835 c7 -9 15 -13 17 -11 7 7 -7 26 -19 26 -6 0 -6 -6 2 -15z"/>
<path d="M1310 2795 c7 -8 20 -15 29 -15 13 1 13 3 -3 15 -26 19 -42 19 -26 0z"/>
<path d="M1886 2785 c4 -8 14 -15 24 -15 10 0 20 7 24 15 4 11 -2 15 -24 15
-22 0 -28 -4 -24 -15z"/>
<path d="M828 2773 c6 -2 18 -2 25 0 6 3 1 5 -13 5 -14 0 -19 -2 -12 -5z"/>
<path d="M885 2775 c26 -9 105 -12 105 -4 0 5 -26 9 -57 8 -32 0 -53 -2 -48
-4z"/>
<path d="M2280 2756 c0 -8 4 -17 9 -20 5 -4 7 3 4 14 -6 23 -13 26 -13 6z"/>
<path d="M1170 2643 c-16 -85 -16 -85 -46 -71 -20 9 -27 9 -34 -1 -9 -15 -12
-302 -4 -344 4 -21 9 -26 17 -18 6 6 14 11 18 11 4 0 5 -57 2 -127 -4 -85 -3
-124 4 -120 6 4 13 62 16 129 3 68 11 175 17 238 14 148 29 364 25 368 -1 2
-8 -28 -15 -65z m-24 -140 c-4 -27 -9 -66 -12 -87 -2 -21 -7 -42 -10 -45 -4
-3 -4 23 0 58 3 35 6 77 6 92 0 16 5 29 11 29 8 0 10 -14 5 -47z"/>
<path d="M1433 2665 c0 -22 2 -30 4 -17 2 12 2 30 0 40 -3 9 -5 -1 -4 -23z"/>
<path d="M845 2682 c-2 -2 -25 -6 -51 -8 -27 -3 -50 -7 -53 -10 -9 -9 264 8
274 17 6 6 -24 8 -78 7 -49 -2 -90 -5 -92 -6z"/>
<path d="M1122 2660 c0 -19 2 -27 5 -17 2 9 2 25 0 35 -3 9 -5 1 -5 -18z"/>
<path d="M518 2673 c6 -2 18 -2 25 0 6 3 1 5 -13 5 -14 0 -19 -2 -12 -5z"/>
<path d="M1040 2640 c4 -22 10 -43 13 -47 9 -8 -4 71 -13 80 -4 5 -4 -10 0
-33z"/>
<path d="M618 2663 c7 -3 16 -2 19 1 4 3 -2 6 -13 5 -11 0 -14 -3 -6 -6z"/>
<path d="M1275 2638 c-3 -18 -7 -143 -8 -278 l-2 -245 30 -5 30 -6 -32 -17
c-61 -32 -30 -50 55 -31 12 2 22 0 22 -6 0 -5 -12 -10 -27 -11 -24 0 -25 -2
-9 -8 18 -7 18 -8 2 -14 -10 -4 -28 -4 -42 -1 -21 5 -24 3 -24 -20 0 -20 5
-26 21 -26 12 0 17 4 13 11 -4 8 -1 8 12 1 20 -11 26 -12 49 -12 8 0 15 -4 15
-9 0 -13 -61 -20 -87 -10 -17 6 -23 5 -23 -5 0 -13 41 -26 85 -26 13 0 26 -7
29 -16 5 -13 1 -15 -16 -11 -13 3 -41 9 -62 13 l-39 7 6 -40 7 -41 -51 -21
c-28 -13 -52 -21 -54 -19 -2 2 -5 19 -8 38 -6 43 -25 93 -26 68 -1 -26 -18
-31 -50 -15 l-28 14 7 -31 c4 -18 4 -52 1 -76 l-6 -45 -14 65 c-8 36 -14 89
-14 119 -1 30 -3 49 -5 43 -2 -7 -13 -13 -25 -13 -17 -1 -18 -2 -4 -6 27 -7
22 -57 -9 -88 -26 -26 -26 -27 -7 -40 11 -8 23 -29 27 -47 3 -18 16 -40 28
-49 12 -9 23 -30 24 -45 1 -16 11 -57 23 -91 16 -46 21 -87 21 -158 0 -57 -4
-94 -9 -90 -5 3 -13 -5 -16 -17 -11 -35 -59 -107 -71 -108 -6 0 -19 9 -29 20
-10 11 -26 22 -36 25 -16 5 -77 139 -71 158 1 4 -3 7 -9 7 -6 0 -8 8 -6 18 3
9 8 34 12 55 5 33 4 37 -15 37 -14 0 -20 -6 -19 -22 0 -22 1 -22 9 -3 7 17 9
15 9 -12 1 -17 -3 -35 -9 -38 -5 -3 -10 -1 -10 4 0 6 -5 11 -12 11 -9 0 -9 -3
0 -12 19 -19 14 -28 -17 -28 -21 0 -32 6 -36 20 -15 49 -116 65 -192 31 -39
-18 -67 -49 -61 -69 2 -5 -9 -19 -24 -33 -23 -19 -29 -36 -34 -84 -6 -63 14
-235 28 -235 4 0 8 -6 8 -14 0 -8 12 -23 27 -34 27 -19 27 -21 10 -39 -23 -26
-22 -42 10 -102 29 -57 73 -101 133 -131 l39 -20 20 33 c10 17 23 44 26 60 4
15 11 29 15 32 7 4 70 -76 70 -90 0 -4 29 -39 64 -77 65 -72 126 -170 126
-205 0 -10 -16 -42 -35 -70 -36 -54 -68 -152 -58 -178 3 -9 16 -18 29 -21 62
-16 167 59 185 132 6 24 15 44 19 44 4 0 10 9 13 20 3 12 14 20 25 20 11 0 32
14 46 31 22 26 26 38 23 82 -2 29 0 62 5 75 7 22 11 20 63 -39 30 -34 55 -65
55 -70 0 -4 6 -14 13 -21 7 -7 30 -41 50 -75 43 -71 82 -103 124 -103 26 0 71
19 48 20 -5 0 -3 5 6 10 22 13 22 74 0 101 -14 17 -23 20 -49 14 -18 -3 -30
-11 -27 -16 4 -5 -3 -5 -17 0 -16 6 -23 17 -24 37 -1 16 -3 42 -5 58 -3 19 1
31 10 34 8 3 11 0 7 -7 -4 -6 -2 -11 4 -11 6 0 9 -10 6 -23 -3 -20 1 -23 29
-25 19 -2 36 2 39 7 9 15 -4 40 -18 35 -9 -3 -13 3 -13 18 0 13 -6 35 -13 51
-10 20 -11 33 -2 50 6 12 15 38 21 57 12 41 52 407 52 471 0 24 -1 54 -1 67 0
12 0 30 0 40 0 63 22 245 34 287 26 85 52 303 29 238 -6 -17 -83 -17 -83 0 0
9 -2 9 -8 0 -14 -22 -12 69 3 132 7 33 17 106 20 163 4 56 11 102 15 102 4 0
6 42 4 93 -4 94 -6 117 -29 267 l-13 85 -2 -110 c-1 -60 -3 -179 -4 -263 -2
-159 -7 -176 -45 -166 -9 3 -6 -1 7 -7 28 -15 29 -39 0 -39 -19 0 -20 -1 -6
-12 10 -8 17 -30 19 -53 3 -70 3 -71 -38 -68 -32 3 -35 2 -19 -8 31 -19 -2
-29 -41 -12 -41 17 -58 9 -19 -8 33 -16 33 -27 -1 -35 -16 -3 -36 -8 -45 -11
-12 -3 -19 2 -20 14 0 10 -2 29 -3 43 -1 14 -5 61 -9 105 -4 48 -3 91 3 105 7
18 10 20 10 8 1 -25 16 -23 18 2 1 11 -4 20 -13 20 -9 0 -14 11 -14 35 0 28 4
35 19 35 11 0 22 -4 25 -9 5 -8 46 -23 46 -17 0 2 -9 13 -20 26 -11 13 -20 29
-20 37 0 7 -10 13 -21 13 -21 0 -21 4 -17 88 3 48 3 81 0 74 -2 -6 -8 -10 -12
-7 -5 3 -7 -5 -5 -17 3 -13 2 -31 -1 -41 -6 -20 -64 -53 -64 -37 0 6 10 14 22
19 14 5 17 10 10 15 -17 10 -15 26 3 26 8 0 15 7 15 15 0 8 -7 15 -16 15 -8 0
-13 4 -10 8 3 5 -11 14 -30 21 -26 9 -34 18 -34 37 0 13 6 24 13 24 8 0 7 4
-3 10 -13 8 -13 13 0 37 17 30 30 34 73 20 49 -16 40 0 -12 24 -28 12 -51 29
-51 36 0 28 -29 12 -35 -19z m118 -317 c-6 -23 -32 -36 -46 -22 -5 5 0 15 14
25 31 21 38 20 32 -3z m-3 -41 c0 -5 -2 -10 -4 -10 -3 0 -8 5 -11 10 -3 6 -1
10 4 10 6 0 11 -4 11 -10z m30 -14 c0 -3 -4 -8 -10 -11 -5 -3 -10 -1 -10 4 0
6 5 11 10 11 6 0 10 -2 10 -4z m-40 -16 c0 -5 -7 -10 -16 -10 -8 0 -12 5 -9
10 3 6 10 10 16 10 5 0 9 -4 9 -10z m-3 -57 c-8 -8 -25 -13 -38 -11 -24 3 -23
4 6 20 34 18 54 13 32 -9z m3 -75 c0 -5 -9 -4 -20 2 -11 6 -20 12 -20 14 0 2
9 2 20 -1 11 -3 20 -9 20 -15z m-230 -308 c13 -8 13 -10 -2 -10 -9 0 -20 5
-23 10 -8 13 5 13 25 0z m271 -305 c15 -250 17 -317 10 -330 -3 -5 -6 -26 -7
-45 0 -19 -4 -100 -9 -179 l-7 -144 -47 50 -47 51 8 178 c4 99 9 193 12 209 3
17 8 55 12 85 3 30 12 82 19 115 7 33 19 101 26 150 15 108 15 110 30 -140z
m-342 -603 c21 -16 25 -29 28 -78 l3 -59 -35 36 c-39 41 -79 110 -89 152 l-7
29 38 -31 c21 -17 49 -39 62 -49z m471 -256 c0 -8 -4 -17 -9 -21 -12 -7 -24
12 -16 25 9 15 25 12 25 -4z m-355 -128 c-4 -13 -11 -27 -16 -32 -5 -6 -9 -18
-9 -28 0 -10 -3 -18 -7 -18 -5 0 -9 23 -10 50 -1 47 1 50 24 50 21 0 23 -3 18
-22z m-55 -78 c0 -15 5 -31 11 -37 7 -7 6 -15 -5 -26 -9 -9 -16 -20 -16 -25 0
-5 -6 -14 -12 -20 -20 -16 -48 27 -37 56 5 12 12 22 17 22 5 0 8 10 7 23 -1
12 2 30 7 41 8 15 12 16 19 5 5 -8 9 -25 9 -39z m510 -81 c0 -5 -9 -9 -20 -9
-22 0 -27 16 -7 23 15 5 27 -1 27 -14z m-560 -29 c0 -5 -2 -10 -4 -10 -3 0 -8
5 -11 10 -3 6 -1 10 4 10 6 0 11 -4 11 -10z m-50 -65 c-13 -16 -42 -20 -54 -8
-4 4 8 14 26 23 35 17 48 9 28 -15z"/>
<path d="M1440 2579 c0 -5 5 -7 10 -4 6 3 10 8 10 11 0 2 -4 4 -10 4 -5 0 -10
-5 -10 -11z"/>
<path d="M1928 2573 c6 -2 18 -2 25 0 6 3 1 5 -13 5 -14 0 -19 -2 -12 -5z"/>
<path d="M990 2561 c0 -6 4 -13 10 -16 6 -3 7 1 4 9 -7 18 -14 21 -14 7z"/>
<path d="M205 2550 c-15 -7 -10 -9 23 -9 26 -1 41 3 37 9 -7 12 -32 12 -60 0z"/>
<path d="M1425 2419 c-9 -14 -2 -20 14 -10 8 6 9 11 3 15 -6 3 -14 1 -17 -5z"/>
<path d="M302 2341 c-11 -7 -11 -9 2 -14 10 -4 16 -1 16 8 0 17 -1 17 -18 6z"/>
<path d="M940 2329 c0 -5 5 -7 10 -4 6 3 10 8 10 11 0 2 -4 4 -10 4 -5 0 -10
-5 -10 -11z"/>
<path d="M63 2314 c-17 -13 -16 -14 12 -8 37 8 51 19 26 21 -11 1 -27 -5 -38
-13z"/>
<path d="M175 2321 c3 -5 -3 -11 -12 -13 -10 -2 10 -8 45 -14 34 -5 62 -9 62
-8 0 1 -15 12 -34 23 -34 21 -72 28 -61 12z"/>
<path d="M925 2269 c-11 -16 -1 -19 13 -3 7 8 8 14 3 14 -5 0 -13 -5 -16 -11z"/>
<path d="M330 2250 c0 -5 5 -10 10 -10 6 0 10 5 10 10 0 6 -4 10 -10 10 -5 0
-10 -4 -10 -10z"/>
<path d="M2015 2250 c3 -5 8 -10 11 -10 2 0 4 5 4 10 0 6 -5 10 -11 10 -5 0
-7 -4 -4 -10z"/>
<path d="M2048 2248 c6 -6 18 -8 28 -6 14 3 12 5 -9 10 -19 3 -25 2 -19 -4z"/>
<path d="M921 2224 c0 -11 3 -14 6 -6 3 7 2 16 -1 19 -3 4 -6 -2 -5 -13z"/>
<path d="M118 2213 c7 -3 16 -2 19 1 4 3 -2 6 -13 5 -11 0 -14 -3 -6 -6z"/>
<path d="M1978 2209 c-31 -18 -19 -30 27 -28 48 3 57 12 26 29 -24 12 -31 12
-53 -1z"/>
<path d="M598 2193 c7 -3 16 -2 19 1 4 3 -2 6 -13 5 -11 0 -14 -3 -6 -6z"/>
<path d="M0 2170 c0 -5 7 -7 15 -4 19 8 19 14 0 14 -8 0 -15 -4 -15 -10z"/>
<path d="M1463 2172 c-13 -2 -23 -8 -23 -14 0 -6 7 -7 18 -3 9 4 25 7 35 7 9
0 17 1 17 3 0 7 -26 11 -47 7z"/>
<path d="M1023 2142 c-8 -16 -10 -43 -6 -67 l6 -39 15 39 c8 22 14 49 14 59
-1 32 -17 37 -29 8z"/>
<path d="M907 2123 c-4 -3 -7 -11 -7 -17 0 -6 5 -5 12 2 6 6 9 14 7 17 -3 3
-9 2 -12 -2z"/>
<path d="M1966 2115 c-10 -26 -8 -28 24 -23 16 2 32 0 34 -6 2 -6 5 -3 5 7 1
10 -6 17 -17 17 -10 0 -23 5 -29 11 -7 7 -12 6 -17 -6z"/>
<path d="M1406 2104 c-9 -22 -9 -22 49 -14 46 7 47 7 13 9 -21 0 -38 6 -38 11
0 16 -17 11 -24 -6z"/>
<path d="M2960 2110 c0 -5 5 -10 11 -10 5 0 7 5 4 10 -3 6 -8 10 -11 10 -2 0
-4 -4 -4 -10z"/>
<path d="M1820 2080 c0 -19 -4 -50 -9 -68 -6 -18 -6 -32 -1 -32 5 0 12 17 15
38 3 20 8 44 9 53 2 9 0 23 -5 30 -6 10 -9 2 -9 -21z"/>
<path d="M3888 2073 c7 -3 16 -2 19 1 4 3 -2 6 -13 5 -11 0 -14 -3 -6 -6z"/>
<path d="M2036 2063 c-3 -3 -3 -10 0 -14 7 -12 34 -11 34 0 0 11 -26 22 -34
14z"/>
<path d="M1972 2051 c-10 -6 -8 -10 9 -14 24 -7 39 -1 39 14 0 11 -30 12 -48
0z"/>
<path d="M2095 2050 c-3 -6 1 -7 9 -4 18 7 21 14 7 14 -6 0 -13 -4 -16 -10z"/>
<path d="M378 2023 c7 -3 16 -2 19 1 4 3 -2 6 -13 5 -11 0 -14 -3 -6 -6z"/>
<path d="M1528 2003 c7 -3 16 -2 19 1 4 3 -2 6 -13 5 -11 0 -14 -3 -6 -6z"/>
<path d="M2190 2000 l-25 -8 28 -1 c15 -1 27 4 27 9 0 6 -1 10 -2 9 -2 -1 -14
-5 -28 -9z"/>
<path d="M2335 1993 c22 -15 32 -16 39 -4 3 5 -8 11 -26 13 -28 5 -29 4 -13
-9z"/>
<path d="M1998 1993 c23 -2 61 -2 85 0 23 2 4 4 -43 4 -47 0 -66 -2 -42 -4z"/>
<path d="M886 1926 c-6 -33 0 -66 13 -66 4 0 7 -8 8 -17 3 -41 20 -87 32 -91
10 -3 12 2 7 21 -3 14 -2 28 4 32 5 3 1 19 -10 38 -11 18 -20 48 -20 68 0 33
2 36 25 31 15 -2 25 0 25 7 0 6 -17 11 -39 11 -36 0 -39 -2 -45 -34z"/>
<path d="M1845 1951 c22 -4 45 -10 52 -14 14 -9 45 2 37 14 -3 5 -33 8 -67 8
-56 -1 -58 -2 -22 -8z"/>
<path d="M1111 1934 c0 -11 3 -14 6 -6 3 7 2 16 -1 19 -3 4 -6 -2 -5 -13z"/>
<path d="M1710 1890 c0 -23 15 -27 24 -5 7 20 24 19 29 -2 4 -14 5 -12 6 5 1
18 -4 22 -29 22 -23 0 -30 -4 -30 -20z"/>
<path d="M3780 1869 c0 -5 5 -7 10 -4 6 3 10 8 10 11 0 2 -4 4 -10 4 -5 0 -10
-5 -10 -11z"/>
<path d="M1774 1803 c-9 -58 -8 -66 9 -74 27 -15 61 -7 65 15 2 11 0 16 -6 12
-17 -10 -22 10 -8 29 8 11 10 30 7 49 -5 24 -12 31 -32 33 -24 1 -26 -2 -35
-64z m34 10 c-2 -20 -8 -38 -13 -40 -7 -2 -9 12 -7 37 2 22 8 40 14 40 5 0 8
-17 6 -37z"/>
<path d="M3741 1764 c0 -11 3 -14 6 -6 3 7 2 16 -1 19 -3 4 -6 -2 -5 -13z"/>
<path d="M3935 1709 c-4 -6 -5 -12 -2 -15 2 -3 7 2 10 11 7 17 1 20 -8 4z"/>
<path d="M2882 1688 c-14 -14 -16 -28 -3 -28 5 0 11 9 14 20 6 23 5 24 -11 8z"/>
<path d="M3676 1651 c-3 -5 1 -11 9 -15 8 -3 15 -1 15 4 0 13 -18 22 -24 11z"/>
<path d="M3880 1646 c0 -2 7 -9 15 -16 12 -10 15 -10 15 4 0 9 -7 16 -15 16
-8 0 -15 -2 -15 -4z"/>
<path d="M826 1569 c-11 -54 -13 -79 -6 -79 4 0 10 21 13 48 6 50 1 70 -7 31z"/>
<path d="M3845 1410 c3 -5 8 -10 11 -10 2 0 4 5 4 10 0 6 -5 10 -11 10 -5 0
-7 -4 -4 -10z"/>
<path d="M3820 1369 c0 -5 5 -7 10 -4 6 3 10 8 10 11 0 2 -4 4 -10 4 -5 0 -10
-5 -10 -11z"/>
<path d="M3650 1270 c0 -5 7 -7 15 -4 8 4 15 8 15 10 0 2 -7 4 -15 4 -8 0 -15
-4 -15 -10z"/>
<path d="M2997 1083 c-4 -3 -7 -11 -7 -17 0 -6 5 -5 12 2 6 6 9 14 7 17 -3 3
-9 2 -12 -2z"/>
<path d="M3020 1050 c-12 -8 -11 -10 7 -10 12 0 25 5 28 10 8 13 -15 13 -35 0z"/>
<path d="M3093 1034 c-7 -3 -9 -12 -6 -20 8 -21 22 -17 20 6 -1 11 -1 20 -2
19 0 0 -5 -3 -12 -5z"/>
<path d="M3145 1020 c-3 -5 1 -10 10 -10 9 0 13 5 10 10 -3 6 -8 10 -10 10 -2
0 -7 -4 -10 -10z"/>
<path d="M3115 930 c3 -5 11 -10 16 -10 6 0 7 5 4 10 -3 6 -11 10 -16 10 -6 0
-7 -4 -4 -10z"/>
<path d="M2830 540 c0 -5 7 -10 16 -10 8 0 12 5 9 10 -3 6 -10 10 -16 10 -5 0
-9 -4 -9 -10z"/>
<path d="M2540 355 c-7 -9 -11 -17 -9 -20 3 -2 10 5 17 15 14 24 10 26 -8 5z"/>
<path d="M3635 220 c-3 -5 -1 -10 4 -10 6 0 11 5 11 10 0 6 -2 10 -4 10 -3 0
-8 -4 -11 -10z"/>
<path d="M2555 210 c-3 -5 -1 -10 4 -10 6 0 11 5 11 10 0 6 -2 10 -4 10 -3 0
-8 -4 -11 -10z"/>
<path d="M3455 200 c3 -5 8 -10 11 -10 2 0 4 5 4 10 0 6 -5 10 -11 10 -5 0 -7
-4 -4 -10z"/>
<path d="M3464 172 c3 -5 1 -12 -6 -14 -19 -7 1 -28 25 -27 12 0 16 3 10 6 -7
2 -13 11 -13 18 0 8 -5 17 -12 21 -6 4 -8 3 -4 -4z"/>
<path d="M3633 139 c11 -7 23 -7 28 -2 5 5 -3 9 -19 11 -24 1 -25 0 -9 -9z"/>
</g>
</svg>
